{
	"asset":{
		"generator":"Khronos glTF Blender I/O v3.6.27",
		"version":"2.0"
	},
	"scene":0,
	"scenes":[
		{
			"name":"Scene",
			"nodes":[
				0,
				1
			]
		}
	],
	"nodes":[
		{
			"mesh":0,
			"name":"\u7403",
			"scale":[
				635.0003662109375,
				635,
				635.000244140625
			]
		},
		{
			"mesh":1,
			"name":"COL",
			"scale":[
				360,
				360,
				360
			]
		}
	],
	"materials":[
		{
			"doubleSided":true,
			"name":"\u30de\u30c6\u30ea\u30a2\u30eb",
			"pbrMetallicRoughness":{
				"baseColorTexture":{
					"index":0
				},
				"metallicFactor":0,
				"roughnessFactor":0.5
			}
		}
	],
	"meshes":[
		{
			"name":"\u7403",
			"primitives":[
				{
					"attributes":{
						"POSITION":0,
						"NORMAL":1,
						"TEXCOORD_0":2
					},
					"indices":3,
					"material":0
				}
			]
		},
		{
			"name":"\u7403.001",
			"primitives":[
				{
					"attributes":{
						"POSITION":4,
						"NORMAL":5,
						"TEXCOORD_0":6
					},
					"indices":7
				}
			]
		}
	],
	"textures":[
		{
			"sampler":0,
			"source":0
		}
	],
	"images":[
		{
			"mimeType":"image/png",
			"name":"sky2.png",
			"uri":"texture/sky2.png"
		}
	],
	"accessors":[
		{
			"bufferView":0,
			"componentType":5126,
			"count":2000,
			"max":[
				0.9999997019767761,
				1,
				0.9999993443489075
			],
			"min":[
				-0.9999990463256836,
				-1,
				-1
			],
			"type":"VEC3"
		},
		{
			"bufferView":1,
			"componentType":5126,
			"count":2000,
			"type":"VEC3"
		},
		{
			"bufferView":2,
			"componentType":5126,
			"count":2000,
			"type":"VEC2"
		},
		{
			"bufferView":3,
			"componentType":5123,
			"count":2880,
			"type":"SCALAR"
		},
		{
			"bufferView":4,
			"componentType":5126,
			"count":1984,
			"max":[
				0.9999997019767761,
				1,
				0.9999993443489075
			],
			"min":[
				-0.9999990463256836,
				-1,
				-1
			],
			"type":"VEC3"
		},
		{
			"bufferView":5,
			"componentType":5126,
			"count":1984,
			"type":"VEC3"
		},
		{
			"bufferView":6,
			"componentType":5126,
			"count":1984,
			"type":"VEC2"
		},
		{
			"bufferView":7,
			"componentType":5123,
			"count":2880,
			"type":"SCALAR"
		}
	],
	"bufferViews":[
		{
			"buffer":0,
			"byteLength":24000,
			"byteOffset":0,
			"target":34962
		},
		{
			"buffer":0,
			"byteLength":24000,
			"byteOffset":24000,
			"target":34962
		},
		{
			"buffer":0,
			"byteLength":16000,
			"byteOffset":48000,
			"target":34962
		},
		{
			"buffer":0,
			"byteLength":5760,
			"byteOffset":64000,
			"target":34963
		},
		{
			"buffer":0,
			"byteLength":23808,
			"byteOffset":69760,
			"target":34962
		},
		{
			"buffer":0,
			"byteLength":23808,
			"byteOffset":93568,
			"target":34962
		},
		{
			"buffer":0,
			"byteLength":15872,
			"byteOffset":117376,
			"target":34962
		},
		{
			"buffer":0,
			"byteLength":5760,
			"byteOffset":133248,
			"target":34963
		}
	],
	"samplers":[
		{
			"magFilter":9729,
			"minFilter":9987
		}
	],
	"buffers":[
		{
			"byteLength":139008,
			"uri":"Sky.bin"
		}
	]
}
