{
	"asset":{
		"generator":"Khronos glTF Blender I/O v3.6.27",
		"version":"2.0"
	},
	"extensionsUsed":[
		"KHR_materials_specular",
		"KHR_materials_ior"
	],
	"scene":0,
	"scenes":[
		{
			"name":"Scene",
			"nodes":[
				2
			]
		}
	],
	"nodes":[
		{
			"mesh":0,
			"name":"saturn_Esfera",
			"translation":[
				3.814697265625e-06,
				0,
				0
			]
		},
		{
			"children":[
				0
			],
			"mesh":1,
			"name":"saturn",
			"scale":[
				24.66675567626953,
				24.643749237060547,
				24.674497604370117
			]
		},
		{
			"children":[
				1
			],
			"name":"Solar system"
		}
	],
	"materials":[
		{
			"alphaMode":"BLEND",
			"doubleSided":true,
			"extensions":{
				"KHR_materials_specular":{
					"specularColorFactor":[
						2.371357614441398,
						2.371357614441398,
						2.371357614441398
					]
				},
				"KHR_materials_ior":{
					"ior":1.4500000476837158
				}
			},
			"name":"phong3",
			"pbrMetallicRoughness":{
				"metallicFactor":0
			}
		},
		{
			"doubleSided":true,
			"extensions":{
				"KHR_materials_specular":{
					"specularColorFactor":[
						2.371357614441398,
						2.371357614441398,
						2.371357614441398
					]
				},
				"KHR_materials_ior":{
					"ior":1.4500000476837158
				}
			},
			"name":"phong2",
			"pbrMetallicRoughness":{
				"metallicFactor":0
			}
		}
	],
	"meshes":[
		{
			"name":"Mesh.008",
			"primitives":[
				{
					"attributes":{
						"POSITION":0,
						"NORMAL":1,
						"TEXCOORD_0":2
					},
					"indices":3,
					"material":0
				}
			]
		},
		{
			"name":"Mesh.007",
			"primitives":[
				{
					"attributes":{
						"POSITION":4,
						"NORMAL":5,
						"TEXCOORD_0":6
					},
					"indices":7,
					"material":1
				}
			]
		}
	],
	"accessors":[
		{
			"bufferView":0,
			"componentType":5126,
			"count":240,
			"max":[
				1.649527668952942,
				0.44198864698410034,
				1.7078386545181274
			],
			"min":[
				-1.6495281457901,
				-0.4419901371002197,
				-1.7077901363372803
			],
			"type":"VEC3"
		},
		{
			"bufferView":1,
			"componentType":5126,
			"count":240,
			"type":"VEC3"
		},
		{
			"bufferView":2,
			"componentType":5126,
			"count":240,
			"type":"VEC2"
		},
		{
			"bufferView":3,
			"componentType":5123,
			"count":1080,
			"type":"SCALAR"
		},
		{
			"bufferView":4,
			"componentType":5126,
			"count":1802,
			"max":[
				1.0135303735733032,
				1.01445472240448,
				1.0131794214248657
			],
			"min":[
				-1.0134893655776978,
				-1.0144574642181396,
				-1.0132042169570923
			],
			"type":"VEC3"
		},
		{
			"bufferView":5,
			"componentType":5126,
			"count":1802,
			"type":"VEC3"
		},
		{
			"bufferView":6,
			"componentType":5126,
			"count":1802,
			"type":"VEC2"
		},
		{
			"bufferView":7,
			"componentType":5123,
			"count":10440,
			"type":"SCALAR"
		}
	],
	"bufferViews":[
		{
			"buffer":0,
			"byteLength":2880,
			"byteOffset":0,
			"target":34962
		},
		{
			"buffer":0,
			"byteLength":2880,
			"byteOffset":2880,
			"target":34962
		},
		{
			"buffer":0,
			"byteLength":1920,
			"byteOffset":5760,
			"target":34962
		},
		{
			"buffer":0,
			"byteLength":2160,
			"byteOffset":7680,
			"target":34963
		},
		{
			"buffer":0,
			"byteLength":21624,
			"byteOffset":9840,
			"target":34962
		},
		{
			"buffer":0,
			"byteLength":21624,
			"byteOffset":31464,
			"target":34962
		},
		{
			"buffer":0,
			"byteLength":14416,
			"byteOffset":53088,
			"target":34962
		},
		{
			"buffer":0,
			"byteLength":20880,
			"byteOffset":67504,
			"target":34963
		}
	],
	"buffers":[
		{
			"byteLength":88384,
			"uri":"Saturn.bin"
		}
	]
}
