{
	"asset":{
		"generator":"Khronos glTF Blender I/O v3.6.27",
		"version":"2.0"
	},
	"scene":0,
	"scenes":[
		{
			"name":"Scene",
			"nodes":[
				0
			]
		}
	],
	"nodes":[
		{
			"mesh":0,
			"name":"GalactixRacer",
			"rotation":[
				0.70710688829422,
				0,
				0,
				0.7071066498756409
			]
		}
	],
	"materials":[
		{
			"doubleSided":true,
			"name":"\u30de\u30c6\u30ea\u30a2\u30eb",
			"pbrMetallicRoughness":{
				"baseColorTexture":{
					"index":0
				},
				"metallicFactor":0,
				"roughnessFactor":0.5
			}
		}
	],
	"meshes":[
		{
			"name":"GalactixRacer",
			"primitives":[
				{
					"attributes":{
						"POSITION":0,
						"NORMAL":1,
						"TEXCOORD_0":2
					},
					"indices":3,
					"material":0
				}
			]
		}
	],
	"textures":[
		{
			"sampler":0,
			"source":0
		}
	],
	"images":[
		{
			"mimeType":"image/png",
			"name":"GalactixRacer.png",
			"uri":"GalactixRacer.png"
		}
	],
	"accessors":[
		{
			"bufferView":0,
			"componentType":5126,
			"count":6454,
			"max":[
				2.356529951095581,
				3.2253334522247314,
				0.675373375415802
			],
			"min":[
				-2.3434698581695557,
				-3.2746665477752686,
				-0.9246266484260559
			],
			"type":"VEC3"
		},
		{
			"bufferView":1,
			"componentType":5126,
			"count":6454,
			"type":"VEC3"
		},
		{
			"bufferView":2,
			"componentType":5126,
			"count":6454,
			"type":"VEC2"
		},
		{
			"bufferView":3,
			"componentType":5123,
			"count":12012,
			"type":"SCALAR"
		}
	],
	"bufferViews":[
		{
			"buffer":0,
			"byteLength":77448,
			"byteOffset":0,
			"target":34962
		},
		{
			"buffer":0,
			"byteLength":77448,
			"byteOffset":77448,
			"target":34962
		},
		{
			"buffer":0,
			"byteLength":51632,
			"byteOffset":154896,
			"target":34962
		},
		{
			"buffer":0,
			"byteLength":24024,
			"byteOffset":206528,
			"target":34963
		}
	],
	"samplers":[
		{
			"magFilter":9729,
			"minFilter":9987
		}
	],
	"buffers":[
		{
			"byteLength":230552,
			"uri":"Enemy.bin"
		}
	]
}
