{
	"asset":{
		"generator":"Khronos glTF Blender I/O v3.6.27",
		"version":"2.0"
	},
	"extensionsUsed":[
		"KHR_materials_ior"
	],
	"scene":0,
	"scenes":[
		{
			"name":"Scene",
			"nodes":[
				0
			]
		}
	],
	"nodes":[
		{
			"mesh":0,
			"name":"UltravioletIntruder",
			"rotation":[
				0,
				-0.7071068286895752,
				0.7071068286895752,
				1.1520234011186403e-07
			]
		}
	],
	"materials":[
		{
			"doubleSided":true,
			"extensions":{
				"KHR_materials_specular":{
					"specularColorFactor":[
						0,
						0,
						0
					]
				},
				"KHR_materials_ior":{
					"ior":1.4500000476837158
				}
			},
			"name":"palette.008",
			"pbrMetallicRoughness":{
				"baseColorTexture":{
					"index":0
				},
				"metallicFactor":0
			}
		}
	],
	"meshes":[
		{
			"name":"UltravioletIntruder.001",
			"primitives":[
				{
					"attributes":{
						"POSITION":0,
						"NORMAL":1,
						"TEXCOORD_0":2
					},
					"indices":3,
					"material":0
				}
			]
		}
	],
	"textures":[
		{
			"sampler":0,
			"source":0
		}
	],
	"images":[
		{
			"mimeType":"image/png",
			"name":"LaserEnemy.png",
			"uri":"Texture/LaserEnemy.png"
		}
	],
	"accessors":[
		{
			"bufferView":0,
			"componentType":5126,
			"count":10114,
			"max":[
				3,
				2.5,
				0.8999999761581421
			],
			"min":[
				-3,
				-2.5,
				-1
			],
			"type":"VEC3"
		},
		{
			"bufferView":1,
			"componentType":5126,
			"count":10114,
			"type":"VEC3"
		},
		{
			"bufferView":2,
			"componentType":5126,
			"count":10114,
			"type":"VEC2"
		},
		{
			"bufferView":3,
			"componentType":5123,
			"count":18720,
			"type":"SCALAR"
		}
	],
	"bufferViews":[
		{
			"buffer":0,
			"byteLength":121368,
			"byteOffset":0,
			"target":34962
		},
		{
			"buffer":0,
			"byteLength":121368,
			"byteOffset":121368,
			"target":34962
		},
		{
			"buffer":0,
			"byteLength":80912,
			"byteOffset":242736,
			"target":34962
		},
		{
			"buffer":0,
			"byteLength":37440,
			"byteOffset":323648,
			"target":34963
		}
	],
	"samplers":[
		{
			"magFilter":9729,
			"minFilter":9987
		}
	],
	"buffers":[
		{
			"byteLength":361088,
			"uri":"LaserEnemy.bin"
		}
	]
}
