{
	"asset":{
		"generator":"Khronos glTF Blender I/O v3.6.27",
		"version":"2.0"
	},
	"extensionsUsed":[
		"KHR_materials_ior"
	],
	"scene":0,
	"scenes":[
		{
			"name":"Scene",
			"nodes":[
				0,
				1,
				2,
				3
			]
		}
	],
	"nodes":[
		{
			"mesh":0,
			"name":"DualStriker",
			"rotation":[
				0,
				-0.7071066498756409,
				0.7071069478988647,
				3.0908616110991716e-08
			],
			"scale":[
				6.399999141693115,
				6.399999141693115,
				6.399999141693115
			]
		},
		{
			"name":"LaserPos0",
			"translation":[
				0,
				13,
				25
			]
		},
		{
			"name":"LaserPos1",
			"translation":[
				25,
				13,
				-25
			]
		},
		{
			"name":"LaserPos2",
			"translation":[
				-25,
				13,
				-25
			]
		}
	],
	"materials":[
		{
			"doubleSided":true,
			"extensions":{
				"KHR_materials_specular":{
					"specularColorFactor":[
						0,
						0,
						0
					]
				},
				"KHR_materials_ior":{
					"ior":1.4500000476837158
				}
			},
			"name":"palette",
			"pbrMetallicRoughness":{
				"baseColorTexture":{
					"index":0
				},
				"metallicFactor":0
			}
		}
	],
	"meshes":[
		{
			"name":"DualStriker",
			"primitives":[
				{
					"attributes":{
						"POSITION":0,
						"NORMAL":1,
						"TEXCOORD_0":2
					},
					"indices":3,
					"material":0
				}
			]
		}
	],
	"textures":[
		{
			"sampler":0,
			"source":0
		}
	],
	"images":[
		{
			"mimeType":"image/png",
			"name":"MotherEnemy.png",
			"uri":"Texture/MotherEnemy.png"
		}
	],
	"accessors":[
		{
			"bufferView":0,
			"componentType":5126,
			"count":19463,
			"max":[
				3.3031933307647705,
				4.180685043334961,
				0.7838788032531738
			],
			"min":[
				-3.396806478500366,
				-4.819314956665039,
				-0.8161212205886841
			],
			"type":"VEC3"
		},
		{
			"bufferView":1,
			"componentType":5126,
			"count":19463,
			"type":"VEC3"
		},
		{
			"bufferView":2,
			"componentType":5126,
			"count":19463,
			"type":"VEC2"
		},
		{
			"bufferView":3,
			"componentType":5123,
			"count":36888,
			"type":"SCALAR"
		}
	],
	"bufferViews":[
		{
			"buffer":0,
			"byteLength":233556,
			"byteOffset":0,
			"target":34962
		},
		{
			"buffer":0,
			"byteLength":233556,
			"byteOffset":233556,
			"target":34962
		},
		{
			"buffer":0,
			"byteLength":155704,
			"byteOffset":467112,
			"target":34962
		},
		{
			"buffer":0,
			"byteLength":73776,
			"byteOffset":622816,
			"target":34963
		}
	],
	"samplers":[
		{
			"magFilter":9729,
			"minFilter":9987
		}
	],
	"buffers":[
		{
			"byteLength":696592,
			"uri":"MotherEnemy.bin"
		}
	]
}
