{
	"asset":{
		"generator":"Khronos glTF Blender I/O v3.6.27",
		"version":"2.0"
	},
	"scene":0,
	"scenes":[
		{
			"name":"Scene",
			"nodes":[
				0
			]
		}
	],
	"nodes":[
		{
			"mesh":0,
			"name":"asteroid",
			"rotation":[
				0.70710688829422,
				0,
				0,
				0.7071066498756409
			],
			"scale":[
				0.0030000004917383194,
				0.0030000002589076757,
				0.0030000002589076757
			]
		}
	],
	"materials":[
		{
			"doubleSided":true,
			"name":"\u30de\u30c6\u30ea\u30a2\u30eb",
			"pbrMetallicRoughness":{
				"baseColorTexture":{
					"index":0
				},
				"metallicFactor":0,
				"roughnessFactor":0.5
			}
		}
	],
	"meshes":[
		{
			"name":"asteroid",
			"primitives":[
				{
					"attributes":{
						"POSITION":0,
						"NORMAL":1,
						"TEXCOORD_0":2
					},
					"indices":3,
					"material":0
				}
			]
		}
	],
	"textures":[
		{
			"sampler":0,
			"source":0
		}
	],
	"images":[
		{
			"mimeType":"image/jpeg",
			"name":"Albedo.jpg",
			"uri":"Textures/Albedo.jpg"
		}
	],
	"accessors":[
		{
			"bufferView":0,
			"componentType":5126,
			"count":2893,
			"max":[
				500.8753662109375,
				223.8829345703125,
				441.1563720703125
			],
			"min":[
				-499.1242980957031,
				-232.78057861328125,
				-366.82757568359375
			],
			"type":"VEC3"
		},
		{
			"bufferView":1,
			"componentType":5126,
			"count":2893,
			"type":"VEC3"
		},
		{
			"bufferView":2,
			"componentType":5126,
			"count":2893,
			"type":"VEC2"
		},
		{
			"bufferView":3,
			"componentType":5123,
			"count":15810,
			"type":"SCALAR"
		}
	],
	"bufferViews":[
		{
			"buffer":0,
			"byteLength":34716,
			"byteOffset":0,
			"target":34962
		},
		{
			"buffer":0,
			"byteLength":34716,
			"byteOffset":34716,
			"target":34962
		},
		{
			"buffer":0,
			"byteLength":23144,
			"byteOffset":69432,
			"target":34962
		},
		{
			"buffer":0,
			"byteLength":31620,
			"byteOffset":92576,
			"target":34963
		}
	],
	"samplers":[
		{
			"magFilter":9729,
			"minFilter":9987
		}
	],
	"buffers":[
		{
			"byteLength":124196,
			"uri":"Rock.bin"
		}
	]
}
