{
	"asset":{
		"generator":"Khronos glTF Blender I/O v3.6.27",
		"version":"2.0"
	},
	"extensionsUsed":[
		"KHR_materials_specular",
		"KHR_materials_ior"
	],
	"scene":0,
	"scenes":[
		{
			"name":"Scene",
			"nodes":[
				0
			]
		}
	],
	"nodes":[
		{
			"mesh":0,
			"name":"\u7403"
		}
	],
	"materials":[
		{
			"doubleSided":true,
			"extensions":{
				"KHR_materials_specular":{
					"specularColorFactor":[
						0,
						0,
						0
					]
				},
				"KHR_materials_ior":{
					"ior":1.4500000476837158
				}
			},
			"name":"\u30de\u30c6\u30ea\u30a2\u30eb",
			"pbrMetallicRoughness":{
				"baseColorFactor":[
					0.09590940177440643,
					0.02893405221402645,
					0,
					1
				],
				"metallicFactor":0
			}
		}
	],
	"meshes":[
		{
			"name":"\u7403",
			"primitives":[
				{
					"attributes":{
						"POSITION":0,
						"NORMAL":1
					},
					"indices":2,
					"material":0
				}
			]
		}
	],
	"accessors":[
		{
			"bufferView":0,
			"componentType":5126,
			"count":4345,
			"max":[
				0.9823784828186035,
				0.7898638248443604,
				1.8950884342193604
			],
			"min":[
				-1.2317606210708618,
				-0.903301477432251,
				-1.7517290115356445
			],
			"type":"VEC3"
		},
		{
			"bufferView":1,
			"componentType":5126,
			"count":4345,
			"type":"VEC3"
		},
		{
			"bufferView":2,
			"componentType":5123,
			"count":12288,
			"type":"SCALAR"
		}
	],
	"bufferViews":[
		{
			"buffer":0,
			"byteLength":52140,
			"byteOffset":0,
			"target":34962
		},
		{
			"buffer":0,
			"byteLength":52140,
			"byteOffset":52140,
			"target":34962
		},
		{
			"buffer":0,
			"byteLength":24576,
			"byteOffset":104280,
			"target":34963
		}
	],
	"buffers":[
		{
			"byteLength":128856,
			"uri":"Rock1.bin"
		}
	]
}
