{
	"asset":{
		"generator":"Khronos glTF Blender I/O v3.6.27",
		"version":"2.0"
	},
	"extensionsUsed":[
		"KHR_materials_specular",
		"KHR_materials_ior"
	],
	"scene":0,
	"scenes":[
		{
			"name":"Scene",
			"nodes":[
				0
			]
		}
	],
	"nodes":[
		{
			"mesh":0,
			"name":"Diamond",
			"scale":[
				3,
				3,
				3
			]
		}
	],
	"materials":[
		{
			"doubleSided":true,
			"extensions":{
				"KHR_materials_specular":{
					"specularColorFactor":[
						1.7196690706845525,
						1.7196690706845525,
						1.7196690706845525
					]
				},
				"KHR_materials_ior":{
					"ior":1.5500000715255737
				}
			},
			"name":"SolidLightBlueGem.001",
			"pbrMetallicRoughness":{
				"baseColorFactor":[
					0.029770100489258766,
					0.7333188056945801,
					1,
					1
				],
				"metallicFactor":0,
				"roughnessFactor":0.12272728234529495
			}
		}
	],
	"meshes":[
		{
			"name":"Plane.002",
			"primitives":[
				{
					"attributes":{
						"POSITION":0,
						"NORMAL":1,
						"TEXCOORD_0":2
					},
					"indices":3,
					"material":0
				}
			]
		}
	],
	"accessors":[
		{
			"bufferView":0,
			"componentType":5126,
			"count":72,
			"max":[
				0.5269912481307983,
				0.2906486988067627,
				0.5754779577255249
			],
			"min":[
				-0.5269912481307983,
				-0.5842150449752808,
				-0.5754779577255249
			],
			"type":"VEC3"
		},
		{
			"bufferView":1,
			"componentType":5126,
			"count":72,
			"type":"VEC3"
		},
		{
			"bufferView":2,
			"componentType":5126,
			"count":72,
			"type":"VEC2"
		},
		{
			"bufferView":3,
			"componentType":5123,
			"count":96,
			"type":"SCALAR"
		}
	],
	"bufferViews":[
		{
			"buffer":0,
			"byteLength":864,
			"byteOffset":0,
			"target":34962
		},
		{
			"buffer":0,
			"byteLength":864,
			"byteOffset":864,
			"target":34962
		},
		{
			"buffer":0,
			"byteLength":576,
			"byteOffset":1728,
			"target":34962
		},
		{
			"buffer":0,
			"byteLength":192,
			"byteOffset":2304,
			"target":34963
		}
	],
	"buffers":[
		{
			"byteLength":2496,
			"uri":"Diamond.bin"
		}
	]
}
