{
	"asset":{
		"generator":"Khronos glTF Blender I/O v3.6.27",
		"version":"2.0"
	},
	"extensionsUsed":[
		"KHR_materials_specular",
		"KHR_materials_ior"
	],
	"scene":0,
	"scenes":[
		{
			"name":"Scene",
			"nodes":[
				0
			]
		}
	],
	"nodes":[
		{
			"mesh":0,
			"name":"Amethyst",
			"scale":[
				3,
				3,
				3
			]
		}
	],
	"materials":[
		{
			"doubleSided":true,
			"extensions":{
				"KHR_materials_specular":{
					"specularColorFactor":[
						1.7196690706845525,
						1.7196690706845525,
						1.7196690706845525
					]
				},
				"KHR_materials_ior":{
					"ior":1.5500000715255737
				}
			},
			"name":"SolidPurpleGem.001",
			"pbrMetallicRoughness":{
				"baseColorFactor":[
					0.3375838100910187,
					0.022466842085123062,
					0.8881453275680542,
					1
				],
				"metallicFactor":0,
				"roughnessFactor":0.12727274000644684
			}
		}
	],
	"meshes":[
		{
			"name":"Plane.001",
			"primitives":[
				{
					"attributes":{
						"POSITION":0,
						"NORMAL":1,
						"TEXCOORD_0":2
					},
					"indices":3,
					"material":0
				}
			]
		}
	],
	"accessors":[
		{
			"bufferView":0,
			"componentType":5126,
			"count":45,
			"max":[
				0.18252353370189667,
				0.5549911260604858,
				0.366214394569397
			],
			"min":[
				-0.18252353370189667,
				-0.5549911260604858,
				-0.366214394569397
			],
			"type":"VEC3"
		},
		{
			"bufferView":1,
			"componentType":5126,
			"count":45,
			"type":"VEC3"
		},
		{
			"bufferView":2,
			"componentType":5126,
			"count":45,
			"type":"VEC2"
		},
		{
			"bufferView":3,
			"componentType":5123,
			"count":60,
			"type":"SCALAR"
		}
	],
	"bufferViews":[
		{
			"buffer":0,
			"byteLength":540,
			"byteOffset":0,
			"target":34962
		},
		{
			"buffer":0,
			"byteLength":540,
			"byteOffset":540,
			"target":34962
		},
		{
			"buffer":0,
			"byteLength":360,
			"byteOffset":1080,
			"target":34962
		},
		{
			"buffer":0,
			"byteLength":120,
			"byteOffset":1440,
			"target":34963
		}
	],
	"buffers":[
		{
			"byteLength":1560,
			"uri":"Amethyst.bin"
		}
	]
}
