{
	"asset":{
		"generator":"Khronos glTF Blender I/O v3.6.27",
		"version":"2.0"
	},
	"extensionsUsed":[
		"KHR_materials_transmission",
		"KHR_materials_specular",
		"KHR_materials_ior"
	],
	"scene":0,
	"scenes":[
		{
			"name":"Scene",
			"nodes":[
				0
			]
		}
	],
	"nodes":[
		{
			"mesh":0,
			"name":"Emerald",
			"scale":[
				3,
				3,
				3
			]
		}
	],
	"materials":[
		{
			"doubleSided":true,
			"extensions":{
				"KHR_materials_transmission":{
					"transmissionFactor":0.8636363744735718
				},
				"KHR_materials_specular":{
					"specularColorFactor":[
						1.1870032961985029,
						1.1870032961985029,
						1.1870032961985029
					]
				},
				"KHR_materials_ior":{
					"ior":1.4500000476837158
				}
			},
			"name":"TransparentGreenGem",
			"pbrMetallicRoughness":{
				"baseColorFactor":[
					0.2397741824388504,
					0.892560601234436,
					0.34448114037513733,
					1
				],
				"metallicFactor":0,
				"roughnessFactor":0.12727274000644684
			}
		}
	],
	"meshes":[
		{
			"name":"Plane",
			"primitives":[
				{
					"attributes":{
						"POSITION":0,
						"NORMAL":1,
						"TEXCOORD_0":2
					},
					"indices":3,
					"material":0
				}
			]
		}
	],
	"accessors":[
		{
			"bufferView":0,
			"componentType":5126,
			"count":114,
			"max":[
				0.12345577776432037,
				0.4209226965904236,
				0.42158347368240356
			],
			"min":[
				-0.12345577776432037,
				-0.4209226965904236,
				-0.42158347368240356
			],
			"type":"VEC3"
		},
		{
			"bufferView":1,
			"componentType":5126,
			"count":114,
			"type":"VEC3"
		},
		{
			"bufferView":2,
			"componentType":5126,
			"count":114,
			"type":"VEC2"
		},
		{
			"bufferView":3,
			"componentType":5123,
			"count":216,
			"type":"SCALAR"
		}
	],
	"bufferViews":[
		{
			"buffer":0,
			"byteLength":1368,
			"byteOffset":0,
			"target":34962
		},
		{
			"buffer":0,
			"byteLength":1368,
			"byteOffset":1368,
			"target":34962
		},
		{
			"buffer":0,
			"byteLength":912,
			"byteOffset":2736,
			"target":34962
		},
		{
			"buffer":0,
			"byteLength":432,
			"byteOffset":3648,
			"target":34963
		}
	],
	"buffers":[
		{
			"byteLength":4080,
			"uri":"Emerald.bin"
		}
	]
}
