{
	"asset":{
		"generator":"Khronos glTF Blender I/O v3.6.27",
		"version":"2.0"
	},
	"extensionsUsed":[
		"KHR_materials_specular",
		"KHR_materials_ior"
	],
	"scene":0,
	"scenes":[
		{
			"name":"Scene",
			"nodes":[
				0
			]
		}
	],
	"nodes":[
		{
			"mesh":0,
			"name":"InterstellarRunner",
			"rotation":[
				0,
				-0.7071068286895752,
				0.7071068286895752,
				1.1520234011186403e-07
			]
		}
	],
	"materials":[
		{
			"doubleSided":true,
			"extensions":{
				"KHR_materials_specular":{
					"specularColorFactor":[
						0,
						0,
						0
					]
				},
				"KHR_materials_ior":{
					"ior":1.4500000476837158
				}
			},
			"name":"palette.001",
			"pbrMetallicRoughness":{
				"metallicFactor":0
			}
		}
	],
	"meshes":[
		{
			"name":"InterstellarRunner",
			"primitives":[
				{
					"attributes":{
						"POSITION":0,
						"NORMAL":1,
						"TEXCOORD_0":2
					},
					"indices":3,
					"material":0
				}
			]
		}
	],
	"accessors":[
		{
			"bufferView":0,
			"componentType":5126,
			"count":3584,
			"max":[
				1.715704321861267,
				3.4341492652893066,
				0.9255614280700684
			],
			"min":[
				-1.6842957735061646,
				-2.1658506393432617,
				-0.6744385957717896
			],
			"type":"VEC3"
		},
		{
			"bufferView":1,
			"componentType":5126,
			"count":3584,
			"type":"VEC3"
		},
		{
			"bufferView":2,
			"componentType":5126,
			"count":3584,
			"type":"VEC2"
		},
		{
			"bufferView":3,
			"componentType":5123,
			"count":6744,
			"type":"SCALAR"
		}
	],
	"bufferViews":[
		{
			"buffer":0,
			"byteLength":43008,
			"byteOffset":0,
			"target":34962
		},
		{
			"buffer":0,
			"byteLength":43008,
			"byteOffset":43008,
			"target":34962
		},
		{
			"buffer":0,
			"byteLength":28672,
			"byteOffset":86016,
			"target":34962
		},
		{
			"buffer":0,
			"byteLength":13488,
			"byteOffset":114688,
			"target":34963
		}
	],
	"buffers":[
		{
			"byteLength":128176,
			"uri":"Player.bin"
		}
	]
}
