{
	"asset":{
		"generator":"Khronos glTF Blender I/O v3.6.27",
		"version":"2.0"
	},
	"scene":0,
	"scenes":[
		{
			"name":"Scene",
			"nodes":[
				0
			]
		}
	],
	"nodes":[
		{
			"mesh":0,
			"name":"InterstellarRunner",
			"rotation":[
				0,
				-0.7071068286895752,
				0.7071068286895752,
				1.1520234011186403e-07
			]
		}
	],
	"materials":[
		{
			"doubleSided":true,
			"name":"\u30de\u30c6\u30ea\u30a2\u30eb",
			"pbrMetallicRoughness":{
				"baseColorTexture":{
					"index":0
				},
				"metallicFactor":0
			}
		}
	],
	"meshes":[
		{
			"name":"InterstellarRunner",
			"primitives":[
				{
					"attributes":{
						"POSITION":0,
						"NORMAL":1,
						"TEXCOORD_0":2
					},
					"indices":3,
					"material":0
				}
			]
		}
	],
	"textures":[
		{
			"sampler":0,
			"source":0
		}
	],
	"images":[
		{
			"mimeType":"image/png",
			"name":"InterstellarRunner.png.001",
			"uri":"InterstellarRunner.png"
		}
	],
	"accessors":[
		{
			"bufferView":0,
			"componentType":5126,
			"count":3584,
			"max":[
				1.715704321861267,
				3.4341492652893066,
				0.704799473285675
			],
			"min":[
				-1.6842957735061646,
				-2.1658506393432617,
				-0.8952005505561829
			],
			"type":"VEC3"
		},
		{
			"bufferView":1,
			"componentType":5126,
			"count":3584,
			"type":"VEC3"
		},
		{
			"bufferView":2,
			"componentType":5126,
			"count":3584,
			"type":"VEC2"
		},
		{
			"bufferView":3,
			"componentType":5123,
			"count":6744,
			"type":"SCALAR"
		}
	],
	"bufferViews":[
		{
			"buffer":0,
			"byteLength":43008,
			"byteOffset":0,
			"target":34962
		},
		{
			"buffer":0,
			"byteLength":43008,
			"byteOffset":43008,
			"target":34962
		},
		{
			"buffer":0,
			"byteLength":28672,
			"byteOffset":86016,
			"target":34962
		},
		{
			"buffer":0,
			"byteLength":13488,
			"byteOffset":114688,
			"target":34963
		}
	],
	"samplers":[
		{
			"magFilter":9729,
			"minFilter":9987
		}
	],
	"buffers":[
		{
			"byteLength":128176,
			"uri":"Player2.bin"
		}
	]
}
