{
	"asset":{
		"generator":"Khronos glTF Blender I/O v3.6.27",
		"version":"2.0"
	},
	"extensionsUsed":[
		"KHR_materials_specular",
		"KHR_materials_ior"
	],
	"scene":0,
	"scenes":[
		{
			"name":"Scene",
			"nodes":[
				0
			]
		}
	],
	"nodes":[
		{
			"mesh":0,
			"name":"Skyguard_Sparrow3"
		}
	],
	"materials":[
		{
			"doubleSided":true,
			"extensions":{
				"KHR_materials_specular":{
					"specularColorFactor":[
						2.371357614441398,
						2.371357614441398,
						2.371357614441398
					]
				},
				"KHR_materials_ior":{
					"ior":1.4500000476837158
				}
			},
			"name":"Skyguard_Sparrow",
			"pbrMetallicRoughness":{
				"roughnessFactor":0.5527864098548889
			}
		}
	],
	"meshes":[
		{
			"name":"\u30e1\u30c3\u30b7\u30e5",
			"primitives":[
				{
					"attributes":{
						"POSITION":0,
						"NORMAL":1,
						"TEXCOORD_0":2
					},
					"indices":3,
					"material":0
				}
			]
		}
	],
	"accessors":[
		{
			"bufferView":0,
			"componentType":5126,
			"count":178,
			"max":[
				0.25737717747688293,
				0.25734490156173706,
				1.5939620733261108
			],
			"min":[
				-0.25733086466789246,
				-0.25736314058303833,
				-1.9062377214431763
			],
			"type":"VEC3"
		},
		{
			"bufferView":1,
			"componentType":5126,
			"count":178,
			"type":"VEC3"
		},
		{
			"bufferView":2,
			"componentType":5126,
			"count":178,
			"type":"VEC2"
		},
		{
			"bufferView":3,
			"componentType":5123,
			"count":528,
			"type":"SCALAR"
		}
	],
	"bufferViews":[
		{
			"buffer":0,
			"byteLength":2136,
			"byteOffset":0,
			"target":34962
		},
		{
			"buffer":0,
			"byteLength":2136,
			"byteOffset":2136,
			"target":34962
		},
		{
			"buffer":0,
			"byteLength":1424,
			"byteOffset":4272,
			"target":34962
		},
		{
			"buffer":0,
			"byteLength":1056,
			"byteOffset":5696,
			"target":34963
		}
	],
	"buffers":[
		{
			"byteLength":6752,
			"uri":"Missile.bin"
		}
	]
}
