{
	"asset":{
		"generator":"Khronos glTF Blender I/O v3.6.27",
		"version":"2.0"
	},
	"extensionsUsed":[
		"KHR_materials_specular",
		"KHR_materials_ior"
	],
	"scene":0,
	"scenes":[
		{
			"name":"Scene",
			"nodes":[
				0
			]
		}
	],
	"nodes":[
		{
			"mesh":0,
			"name":"\u7403",
			"scale":[
				60,
				60,
				60
			]
		}
	],
	"materials":[
		{
			"doubleSided":true,
			"extensions":{
				"KHR_materials_specular":{
					"specularColorFactor":[
						0,
						0,
						0
					]
				},
				"KHR_materials_ior":{
					"ior":1.4500000476837158
				}
			},
			"name":"\u30de\u30c6\u30ea\u30a2\u30eb",
			"pbrMetallicRoughness":{
				"baseColorFactor":[
					0.242275670170784,
					0.041348446160554886,
					0,
					1
				],
				"metallicFactor":0,
				"roughnessFactor":0.4862385392189026
			}
		}
	],
	"meshes":[
		{
			"name":"\u7403",
			"primitives":[
				{
					"attributes":{
						"POSITION":0,
						"NORMAL":1
					},
					"indices":2,
					"material":0
				}
			]
		}
	],
	"accessors":[
		{
			"bufferView":0,
			"componentType":5126,
			"count":36960,
			"max":[
				0.9895838499069214,
				0.9895834922790527,
				0.9895830154418945
			],
			"min":[
				-0.9895830154418945,
				-0.9895833730697632,
				-0.9895838499069214
			],
			"type":"VEC3"
		},
		{
			"bufferView":1,
			"componentType":5126,
			"count":36960,
			"type":"VEC3"
		},
		{
			"bufferView":2,
			"componentType":5123,
			"count":93348,
			"type":"SCALAR"
		}
	],
	"bufferViews":[
		{
			"buffer":0,
			"byteLength":443520,
			"byteOffset":0,
			"target":34962
		},
		{
			"buffer":0,
			"byteLength":443520,
			"byteOffset":443520,
			"target":34962
		},
		{
			"buffer":0,
			"byteLength":186696,
			"byteOffset":887040,
			"target":34963
		}
	],
	"buffers":[
		{
			"byteLength":1073736,
			"uri":"Base.bin"
		}
	]
}
